<?xml version="1.0" encoding="UTF-8"?>
<svg id="SVGDoc" width="22" height="22" xmlns="http://www.w3.org/2000/svg" version="1.1" xmlns:xlink="http://www.w3.org/1999/xlink" xmlns:avocode="https://avocode.com/" viewBox="0 0 22 22"><defs></defs><desc>Generated with Avocode.</desc><g><g><title>Path</title><path d="M14.39229,1.27v0l1.6778,3.11013c0.0286,0.05327 0.0663,0.10016 0.1133,0.13773c0.046,0.03851 0.0993,0.0676 0.157,0.0852l3.3738,1.05176v0l-0.7149,3.46031c-0.0118,0.059 -0.0129,0.1196 -0.0022,0.1788c0.0117,0.0583 0.0333,0.1151 0.0659,0.1656l1.9086,2.9742v0l-2.7714,2.1917c-0.0468,0.0367 -0.0864,0.0836 -0.1164,0.1358c-0.03,0.0523 -0.0485,0.109 -0.0565,0.1693l-0.4492,3.505v0l-3.5324,-0.1026c-0.0605,-0.0021 -0.1197,0.0076 -0.1765,0.0292c-0.0558,0.0207 -0.1072,0.0523 -0.1514,0.0931l-2.5979,2.3959v0l-2.63935,-2.3492c-0.04493,-0.0394 -0.09714,-0.0704 -0.15379,-0.0909c-0.0567,-0.0195 -0.11687,-0.0284 -0.17666,-0.0255l-3.53027,0.1654v0l-0.51135,-3.496c-0.00869,-0.06 -0.02929,-0.1168 -0.05988,-0.1692c-0.03064,-0.0514 -0.0704,-0.0965 -0.11841,-0.1331l-2.81018,-2.1418v0l1.85454,-3.0076c0.03192,-0.0512 0.05337,-0.1078 0.06321,-0.1669c0.00983,-0.0591 0.00802,-0.1199 -0.00565,-0.1782l-0.77583,-3.44779v0l3.35428,-1.11203c0.05668,-0.01864 0.11,-0.0482 0.15498,-0.08699c0.04601,-0.03972 0.08359,-0.0867 0.11171,-0.14003l1.6207,-3.13967v0l3.28475,1.30441c0.0556,0.02237 0.1147,0.03318 0.1753,0.03234c0.0597,0.00009 0.119,-0.01256 0.1749,-0.03515l3.2594,-1.36322v0z" fill-opacity="0" fill="#ffffff" stroke-linejoin="round" stroke-linecap="butt" stroke-opacity="1" stroke="#182f7c" stroke-miterlimit="20" stroke-width="1"></path></g><g><title>Path</title><path d="M7.59,14.399l6.829,-6.829" fill-opacity="0" fill="#ffffff" stroke-linejoin="round" stroke-linecap="round" stroke-opacity="1" stroke="#182f7c" stroke-miterlimit="20" stroke-width="1"></path></g><g><title>Path</title><path d="M9.567,8.149c0,-0.788 -0.64,-1.429 -1.429,-1.429c-0.788,0 -1.428,0.641 -1.428,1.429c0,0.788 0.64,1.429 1.428,1.429c0.789,0 1.429,-0.641 1.429,-1.429z" fill-opacity="0" fill="#ffffff" stroke-linejoin="round" stroke-linecap="round" stroke-opacity="1" stroke="#182f7c" stroke-miterlimit="20" stroke-width="1"></path></g><g><title>Path</title><path d="M15.258,13.868c0,-0.788 -0.641,-1.428 -1.429,-1.428c-0.788,0 -1.429,0.64 -1.429,1.428c0,0.789 0.641,1.429 1.429,1.429c0.788,0 1.429,-0.64 1.429,-1.429z" fill-opacity="0" fill="#ffffff" stroke-linejoin="round" stroke-linecap="round" stroke-opacity="1" stroke="#182f7c" stroke-miterlimit="20" stroke-width="1"></path></g></g></svg>